<?xml version="1.0" standalone="no"?><!DOCTYPE svg PUBLIC "-//W3C//DTD SVG 1.1//EN" "http://www.w3.org/Graphics/SVG/1.1/DTD/svg11.dtd"><svg t="1565576099752" class="icon" viewBox="0 0 1071 1024" version="1.1" xmlns="http://www.w3.org/2000/svg" p-id="19709" width="16.734375" height="16" xmlns:xlink="http://www.w3.org/1999/xlink"><defs><style type="text/css"></style></defs><path d="M686.158568 157.13555H364.030691c-54.997442 0-99.519182 44.521739-99.519182 96.900256V576.163683c0 54.997442 44.521739 99.519182 99.519182 99.519181H497.595908c10.475703 0 18.332481-7.856777 18.332481-18.33248s-7.856777-18.332481-18.332481-18.332481h-133.565217c-34.046036 0-60.235294-26.189258-60.235295-60.235294V256.654731c0-34.046036 26.189258-60.235294 60.235295-60.235294h322.127877c34.046036 0 60.235294 26.189258 60.235294 60.235294v235.703325c-5.237852-2.618926-13.094629-2.618926-18.332481-2.618926h-41.902813c-47.140665 0-86.424552 39.283887-86.424553 86.424553v52.378516c0 26.189258 20.951407 47.140665 47.140665 47.140665h36.664962c54.997442 0 99.519182-44.521739 99.519182-99.519181V254.035806c0-52.378517-44.521739-96.900256-96.900256-96.900256z m60.235294 421.647059c0 34.046036-26.189258 60.235294-60.235294 60.235294h-36.664962c-5.237852 0-10.475703-5.237852-10.475703-10.475704v-54.997442c0-26.189258 20.951407-49.759591 49.759591-49.759591h41.902813c10.475703 0 18.332481 7.856777 18.332481 18.332481v36.664962z" fill="#ffffff" p-id="19710"></path><path d="M374.506394 306.414322h319.508951c10.475703 0 18.332481-7.856777 18.332481-18.332481s-7.856777-18.332481-18.332481-18.33248H374.506394c-10.475703 0-18.332481 7.856777-18.332481 18.33248s7.856777 18.332481 18.332481 18.332481zM374.506394 426.88491h319.508951c10.475703 0 18.332481-7.856777 18.332481-18.33248s-7.856777-18.332481-18.332481-18.332481H374.506394c-10.475703 0-18.332481 7.856777-18.332481 18.332481s7.856777 18.332481 18.332481 18.33248zM560.450128 510.690537h-188.56266c-10.475703 0-18.332481 7.856777-18.332481 18.332481s7.856777 18.332481 18.332481 18.332481h188.56266c10.475703 0 18.332481-7.856777 18.332481-18.332481s-7.856777-18.332481-18.332481-18.332481z" fill="#ffffff" p-id="19711"></path><path d="M940.194373 0h-811.867007C57.616368 0 0 57.616368 0 128.327366v576.163683c0 70.710997 57.616368 128.327366 128.327366 128.327365h811.867007c70.710997 0 128.327366-57.616368 128.327366-128.327365v-576.163683c2.618926-70.710997-54.997442-128.327366-128.327366-128.327366z m57.616369 704.491049c0 31.42711-26.189258 54.997442-54.997443 54.997442H130.946292c-31.42711 0-54.997442-26.189258-54.997443-54.997442v-576.163683c0-31.42711 26.189258-54.997442 54.997443-54.997443h811.867007c31.42711 0 54.997442 26.189258 54.997443 54.997443v576.163683zM906.148338 948.051151h-201.657289v-20.951407c0-18.332481-13.094629-31.42711-31.42711-31.42711H377.12532c-18.332481 0-31.42711 13.094629-31.42711 31.42711v20.951407H144.040921c-20.951407 0-36.664962 15.713555-36.664962 36.664962S123.089514 1021.381074 144.040921 1021.381074h762.107417c20.951407 0 36.664962-15.713555 36.664961-36.664961s-15.713555-36.664962-36.664961-36.664962z" fill="#ffffff" p-id="19712"></path></svg>